<?xml version="1.0" standalone="no"?>
<!DOCTYPE svg PUBLIC "-//W3C//DTD SVG 20010904//EN"
 "http://www.w3.org/TR/2001/REC-SVG-20010904/DTD/svg10.dtd">
<svg version="1.0" xmlns="http://www.w3.org/2000/svg"
 width="530.000000pt" height="530.000000pt" viewBox="0 0 530.000000 530.000000"
 preserveAspectRatio="xMidYMid meet">
<metadata>
Created by potrace 1.14, written by Peter Selinger 2001-2017
</metadata>
<g transform="translate(0.000000,530.000000) scale(0.100000,-0.100000)"
fill="#000000" stroke="none">
<path d="M2879 4890 c-56 -10 -108 -38 -155 -86 -40 -40 -45 -42 -76 -33 -70
20 -96 23 -193 24 -107 0 -161 -13 -264 -63 -65 -32 -151 -113 -179 -168 -17
-33 -28 -43 -54 -48 -51 -9 -72 -29 -163 -149 -119 -159 -196 -227 -260 -227
-42 0 -48 -8 -28 -40 22 -37 81 -70 132 -72 23 -1 41 -2 41 -4 0 -1 -16 -59
-35 -130 -44 -159 -44 -159 -5 -139 16 8 31 15 34 15 14 0 -34 -175 -59 -215
-7 -11 -16 -30 -20 -43 -6 -22 -5 -23 34 -18 23 3 45 7 50 11 22 13 18 -16
-10 -75 -20 -42 -26 -66 -19 -70 14 -8 61 -5 118 8 23 5 42 9 42 7 0 -11 -23
-65 -28 -66 -4 0 -14 -2 -22 -4 -8 -1 -30 -5 -49 -8 -48 -8 -87 -39 -83 -67 4
-33 29 -48 97 -55 113 -12 114 -12 108 -49 -4 -27 -1 -34 21 -44 15 -7 48 -12
73 -12 37 0 44 -3 35 -12 -43 -43 24 -70 198 -78 83 -4 -5 -17 -102 -15 -95 3
-138 20 -138 55 0 16 -7 20 -36 20 -65 0 -102 37 -84 84 9 25 5 30 -21 28 -75
-8 -111 -17 -166 -42 -36 -17 -67 -29 -68 -28 -1 2 -10 28 -20 58 -43 132 -79
176 -117 142 -10 -8 -18 -25 -18 -36 -1 -19 -2 -19 -15 5 -7 14 -27 64 -44
112 -36 106 -84 198 -111 215 -25 16 -56 2 -66 -30 -4 -13 -7 -86 -6 -163 2
-158 -1 -158 -53 -15 -33 92 -59 115 -71 63 -12 -49 -15 -46 -60 47 -25 50
-64 110 -88 136 -40 42 -45 44 -69 33 -15 -7 -31 -25 -36 -43 -10 -30 -7 -135
4 -186 3 -14 8 -41 11 -60 3 -19 12 -60 20 -90 15 -58 18 -98 6 -70 -13 28
-65 91 -85 101 -15 9 -24 7 -40 -10 -20 -19 -20 -24 -9 -68 7 -25 23 -68 36
-95 13 -26 22 -48 20 -48 -2 0 -14 5 -28 11 -28 13 -62 -4 -49 -25 4 -6 -18
12 -49 40 -62 56 -82 65 -116 53 -25 -9 -30 -57 -11 -106 6 -15 10 -29 10 -30
0 -2 24 -45 53 -97 56 -99 57 -106 1 -106 -19 0 -23 -4 -20 -22 4 -20 57 -83
95 -114 22 -18 8 -25 -31 -14 -18 6 -47 10 -63 10 -25 0 -28 -3 -24 -25 5 -22
2 -24 -18 -21 -13 3 -28 7 -33 10 -18 12 -81 15 -87 5 -9 -15 41 -65 111 -110
51 -33 55 -39 30 -34 -16 2 -37 0 -45 -5 -13 -8 -12 -11 5 -25 36 -28 169
-105 182 -105 7 0 13 -4 13 -8 0 -5 -10 -8 -22 -7 -68 6 -53 -30 29 -71 32
-16 60 -30 62 -31 2 -1 -8 -16 -23 -33 -63 -76 -38 -155 52 -162 27 -2 32 -6
32 -28 0 -14 9 -40 20 -57 16 -26 17 -38 9 -56 -6 -13 -16 -24 -22 -24 -42 -1
-106 -17 -197 -49 -110 -39 -160 -64 -127 -64 22 0 22 0 58 -10 38 -11 108
-23 129 -22 25 1 20 -31 -7 -52 -23 -17 -28 -17 -57 -4 -63 30 -132 9 -179
-54 -20 -27 -21 -37 -15 -173 5 -117 41 -162 168 -205 84 -29 226 -31 291 -5
10 3 34 2 55 -4 22 -6 41 -11 44 -11 3 -1 33 -7 68 -15 83 -17 295 -12 392 10
41 9 83 18 93 20 24 5 132 44 182 65 38 16 40 16 73 -7 88 -59 155 -1 248 213
l39 90 46 -47 c61 -63 95 -72 125 -34 12 15 23 22 25 17 8 -21 168 -110 189
-105 11 3 18 9 15 13 -2 4 4 7 15 6 28 -1 22 -14 -26 -58 -60 -55 -97 -137
-98 -215 0 -76 16 -101 33 -50 22 64 151 187 198 187 7 0 27 -22 43 -48 20
-33 45 -57 79 -75 27 -15 51 -34 55 -42 9 -26 69 -55 112 -55 28 0 57 10 97
34 87 53 148 122 201 230 27 54 44 76 71 90 19 11 35 23 35 28 0 4 5 8 11 8
11 0 143 129 189 185 94 113 202 326 233 456 l6 25 -169 1 c-161 0 -172 1
-204 24 -62 42 -66 58 -66 252 l0 176 -32 -9 c-89 -26 -169 -125 -184 -228 -9
-60 -12 -67 -51 -87 -20 -11 -54 -42 -76 -70 -22 -27 -53 -54 -69 -60 -25 -8
-33 -19 -48 -65 -21 -68 -57 -140 -70 -140 -6 0 -10 4 -10 10 0 10 -129 140
-139 140 -4 0 -22 11 -40 24 -38 28 -42 20 64 112 210 181 355 286 549 394 54
30 100 60 101 65 2 6 6 22 9 36 6 29 50 82 83 98 12 6 46 11 76 11 51 0 57 3
81 35 59 77 69 134 34 196 -22 40 -92 79 -140 79 -21 -1 -71 -28 -55 -31 4 -1
10 -2 15 -3 4 -1 22 -6 39 -10 34 -8 63 -39 63 -66 0 -23 -51 -76 -95 -98 -66
-33 -142 -49 -240 -51 -22 -1 -26 -4 -17 -13 18 -18 14 -52 -8 -76 -23 -24
-23 -24 -94 -26 l-50 -1 0 -40 c-1 -34 -5 -42 -31 -54 -16 -8 -56 -20 -87 -26
-64 -14 -288 -16 -288 -3 0 4 14 9 30 9 17 1 38 2 48 3 9 2 58 6 107 11 50 5
92 9 95 10 3 1 22 5 42 9 51 11 64 29 49 64 -7 15 -14 29 -14 31 -1 2 20 5 47
7 75 6 97 12 117 30 24 22 24 41 -1 54 -31 17 -24 27 23 34 101 15 215 41 255
58 35 15 82 58 82 75 0 21 -41 41 -97 49 -59 7 -59 15 -2 45 52 26 74 71 53
111 -8 16 -26 30 -42 34 -15 3 -36 8 -46 11 -11 3 -73 7 -139 8 -65 2 -120 5
-122 7 -2 2 -2 13 1 24 5 19 14 19 207 19 305 0 476 21 664 81 23 7 52 15 65
18 13 2 70 21 128 41 58 20 159 51 224 70 65 19 121 37 123 39 3 3 -40 27 -95
55 -55 27 -118 61 -141 75 -22 14 -43 26 -46 26 -3 0 -11 4 -18 10 -7 5 -50
38 -97 72 -113 82 -149 116 -130 122 103 34 219 51 350 50 130 0 218 -19 290
-61 25 -15 47 -27 49 -27 7 -1 12 38 13 114 5 269 -232 546 -547 639 -106 31
-121 33 -250 37 -92 3 -141 -1 -209 -16 -92 -21 -94 -20 -134 18 -88 82 -231
120 -305 81 -15 -8 -33 -3 -86 25 -80 42 -171 65 -222 56z m-84 -517 c45 -21
45 -30 0 -25 -22 3 -45 -2 -60 -12 -24 -16 -25 -15 -25 3 0 53 24 63 85 34z
m-87 -89 c3 -37 7 -41 62 -55 50 -13 51 -29 3 -29 -13 0 -23 -5 -23 -10 0 -14
44 -55 87 -81 40 -25 92 -20 124 12 13 13 19 15 19 5 0 -26 -35 -56 -71 -61
-71 -11 -201 81 -244 172 -9 19 -15 36 -13 37 5 4 52 36 53 36 0 0 2 -12 3
-26z m-967 -1446 c6 -9 -1 -15 -21 -21 -17 -4 -31 -14 -31 -22 -4 -39 -5 -161
-2 -167 2 -3 29 22 61 55 111 118 111 118 99 138 -6 10 -9 20 -6 23 2 3 82 6
177 7 175 2 219 -6 173 -30 -12 -7 -21 -9 -21 -5 0 3 -6 1 -14 -5 -21 -18 -17
-385 4 -421 24 -39 39 -52 78 -65 66 -23 128 1 157 60 17 35 20 62 20 229 1
162 -1 189 -15 193 -93 28 -70 45 60 45 56 -1 105 -3 108 -6 7 -7 -18 -37 -27
-32 -4 3 -13 1 -20 -3 -10 -6 -14 -55 -16 -195 -3 -184 -3 -188 -31 -244 -41
-79 -98 -114 -194 -118 -116 -5 -197 35 -232 115 -18 40 -22 72 -25 241 -3
107 -6 197 -8 199 -2 2 -15 1 -28 -3 -24 -6 -213 -180 -219 -202 -3 -10 117
-144 272 -305 52 -54 118 -98 157 -103 10 -2 18 -9 18 -17 0 -10 -18 -15 -70
-17 -98 -5 -133 9 -191 71 -117 126 -230 251 -242 268 -23 33 -28 21 -26 -63
3 -145 2 -138 27 -138 28 0 51 -15 43 -28 -7 -12 -228 -13 -247 -1 -16 10 -9
18 21 24 12 2 25 7 29 11 9 9 12 477 3 491 -4 7 -17 14 -27 16 -32 4 -47 17
-36 30 14 17 232 12 242 -5z m-631 -193 c5 -13 41 -57 80 -97 54 -57 70 -69
71 -53 1 11 2 46 3 77 1 32 5 60 9 64 3 3 21 -25 40 -62 19 -38 51 -98 71
-133 57 -101 35 -96 -30 6 -32 51 -62 93 -65 93 -3 0 -4 -22 -3 -50 3 -36 0
-50 -9 -50 -7 0 -49 34 -92 75 -44 41 -80 75 -80 75 -1 0 -1 -18 -2 -41 0 -22
-3 -42 -6 -45 -3 -3 -40 14 -82 37 -43 23 -76 37 -74 32 2 -5 18 -35 34 -67
35 -66 26 -84 -31 -60 -53 22 -56 17 -19 -32 20 -26 34 -49 31 -52 -3 -2 -25
-7 -48 -9 -24 -3 -44 -6 -46 -8 -2 -2 28 -29 65 -60 37 -32 69 -61 71 -64 1
-4 -16 -17 -38 -30 -22 -12 -40 -24 -40 -26 0 -7 73 -25 120 -31 73 -9 79 -14
36 -34 -21 -10 -34 -20 -28 -24 42 -25 244 -41 300 -22 26 9 31 -9 5 -19 -78
-29 -214 -22 -303 16 -48 21 -50 23 -34 40 16 18 16 19 -8 19 -23 0 -152 41
-163 52 -3 2 14 11 37 18 24 8 51 20 60 28 16 14 15 17 -20 44 -20 16 -55 48
-76 71 -39 41 -39 42 -15 47 13 4 36 5 52 3 37 -4 35 17 -8 74 -36 47 -45 71
-22 56 17 -10 111 -42 115 -39 1 2 -17 42 -41 89 -48 92 -47 92 23 47 41 -26
121 -57 126 -49 3 5 5 26 4 47 -3 58 -1 72 10 72 6 0 15 -11 20 -25z m343
-347 c2 -7 -1 -29 -8 -48 -7 -19 -18 -69 -26 -110 -12 -71 -13 -73 -25 -45 -8
20 -8 39 -2 63 5 19 11 42 13 52 2 9 9 35 16 58 12 42 24 53 32 30z m1034
-192 c-3 -7 -25 -44 -49 -82 -46 -72 -116 -219 -121 -254 -6 -38 -23 -44 -44
-13 -26 37 -40 80 -38 121 0 17 0 32 -2 32 -1 0 -19 -30 -40 -67 -21 -38 -43
-77 -50 -88 -7 -11 -16 -30 -22 -41 -9 -20 -41 -41 -41 -27 0 3 30 65 66 137
66 130 116 210 126 201 3 -3 3 -45 1 -93 -3 -51 0 -99 6 -116 12 -29 23 -29
27 2 4 27 56 144 83 188 49 78 116 147 98 100z m531 -77 c25 -10 27 -18 10
-54 -10 -23 -16 -26 -47 -21 -20 4 -53 9 -73 12 -21 3 -38 10 -38 16 0 14 21
52 34 60 12 8 79 0 114 -13z m-1617 -61 c-4 -97 -5 -103 -24 -106 -16 -3 -18
0 -11 20 4 12 6 42 5 66 -1 41 15 90 26 78 3 -3 5 -29 4 -58z m-316 -78 c6
-32 4 -36 -26 -49 -25 -11 -33 -11 -39 -1 -11 18 -1 52 24 76 25 26 32 21 41
-26z m127 -135 c7 -32 -25 -44 -53 -19 -24 21 -24 31 -1 37 38 10 50 7 54 -18z"/>
<path d="M3931 3359 c-16 -10 -32 -26 -34 -36 -3 -10 -6 -127 -6 -261 0 -134
-3 -246 -5 -251 -3 -4 -114 -7 -247 -7 -264 1 -288 -3 -314 -54 -18 -34 -21
-429 -4 -478 19 -56 37 -60 313 -61 137 0 251 -3 253 -5 2 -2 5 -118 6 -259 2
-250 3 -256 24 -276 21 -20 34 -21 267 -21 259 0 260 0 285 48 4 9 7 128 7
265 l-1 247 25 0 c14 0 122 1 240 1 118 0 231 4 251 10 60 15 66 44 65 298 -1
184 -3 219 -18 239 -31 44 -50 47 -310 46 -137 0 -248 2 -249 5 -1 3 -2 119
-4 256 -1 138 -3 256 -4 262 0 7 -13 21 -28 30 -24 16 -55 18 -255 19 -202 1
-231 -1 -257 -17z"/>
<path d="M3182 1250 c-20 -9 -42 -45 -42 -71 0 -19 49 -59 73 -59 31 0 67 35
67 66 0 27 -40 74 -62 73 -7 0 -23 -4 -36 -9z m52 -11 c28 -13 38 -41 26 -74
-18 -46 -82 -42 -99 7 -9 26 -7 33 14 54 28 28 26 27 59 13z"/>
<path d="M3184 1218 c-5 -8 0 -9 14 -6 12 4 25 2 28 -3 5 -9 -8 -13 -31 -10
-6 0 -11 -11 -11 -25 0 -24 1 -24 13 -8 12 17 14 17 27 -1 12 -17 13 -16 12
16 0 19 -5 37 -11 41 -15 11 -33 10 -41 -4z"/>
<path d="M377 982 c-3 -15 2 -26 14 -33 11 -5 19 -7 19 -4 0 3 8 1 18 -4 17
-9 18 -25 16 -188 -2 -218 0 -200 -26 -209 -31 -9 -34 -7 -30 21 5 40 -15 65
-51 65 -41 0 -57 -15 -57 -56 0 -115 185 -138 239 -30 9 20 14 80 15 209 l1
181 33 10 c24 7 32 14 32 32 0 13 -3 25 -7 25 -5 1 -54 2 -110 3 -99 1 -102 1
-106 -22z"/>
<path d="M902 886 c-29 -69 -52 -129 -52 -133 -1 -4 -9 -26 -20 -48 -11 -22
-19 -43 -20 -48 0 -4 -9 -26 -20 -50 -14 -29 -30 -46 -50 -54 -20 -8 -30 -18
-30 -32 0 -25 -7 -23 98 -26 61 -1 85 2 94 13 15 17 0 44 -26 48 -27 4 -28 8
-7 57 l20 46 79 0 80 0 17 -44 c16 -42 13 -71 -5 -60 -16 10 -41 -25 -31 -44
8 -15 23 -17 103 -16 116 3 108 1 108 28 0 17 -9 26 -32 35 -31 11 -37 23
-120 229 -77 195 -89 218 -111 221 -22 3 -28 -7 -75 -122z m95 -96 c12 -33 18
-61 15 -63 -13 -7 -92 -1 -93 6 -2 13 43 117 50 117 3 0 16 -27 28 -60z"/>
<path d="M1331 1002 c-14 -5 -14 -52 -1 -53 38 -5 54 -19 91 -79 19 -31 39
-64 46 -75 56 -92 60 -102 59 -166 -1 -63 -1 -64 -34 -74 -27 -8 -32 -14 -30
-35 3 -25 3 -25 106 -26 61 0 106 4 111 10 15 22 5 40 -29 51 l-35 12 1 69 c1
66 4 73 65 176 52 87 71 111 101 125 40 19 55 40 39 56 -10 10 -200 17 -202 8
0 -3 -2 -16 -5 -28 -3 -17 1 -23 14 -23 45 -1 45 -15 0 -94 -23 -41 -46 -76
-49 -76 -3 0 -25 34 -49 76 -35 62 -41 77 -29 85 8 5 20 9 27 9 6 0 12 11 12
25 0 14 -6 26 -12 26 -34 3 -188 4 -197 1z"/>
<path d="M1944 992 c-12 -12 -9 -41 5 -43 23 -3 44 -8 49 -14 4 -4 7 -88 7
-187 l1 -180 -26 -9 c-14 -5 -31 -12 -37 -14 -9 -3 -10 -11 -4 -27 8 -22 13
-23 109 -23 55 0 104 3 107 7 4 4 5 18 1 32 -4 17 -11 23 -24 19 -32 -8 -43
20 -40 98 l3 74 103 0 c114 0 104 8 104 -80 0 -82 -1 -83 -31 -90 -16 -3 -32
-13 -35 -22 -12 -31 11 -39 106 -37 118 1 113 0 115 24 2 22 -6 29 -38 35 -12
3 -23 6 -25 8 -5 5 -7 367 -2 372 2 3 13 6 24 8 28 4 42 15 40 32 -4 26 -16
29 -112 30 -70 1 -98 -2 -106 -13 -15 -17 0 -44 26 -48 38 -5 40 -15 37 -129
l-1 -25 -105 0 -105 0 0 70 c0 59 3 71 20 80 11 6 20 8 20 4 0 -3 7 -1 15 6
15 13 21 49 8 51 -5 1 -50 2 -102 3 -66 1 -98 -2 -107 -12z"/>
<path d="M2726 789 c-84 -210 -91 -222 -122 -235 -35 -15 -43 -35 -21 -51 10
-7 122 -10 175 -4 6 0 12 12 12 25 0 18 -7 25 -29 29 l-29 6 18 48 18 48 80 2
80 1 20 -46 c21 -48 17 -62 -19 -62 -23 0 -31 -38 -11 -49 10 -5 58 -8 107 -7
l90 1 0 29 c0 21 -5 30 -20 32 -23 3 -53 37 -61 69 -3 13 -39 103 -79 201
-102 249 -95 250 -209 -37z m122 28 c11 -23 22 -53 23 -67 4 -23 1 -24 -43
-26 -48 -1 -55 7 -37 41 3 6 11 29 19 53 7 23 14 42 15 42 2 0 12 -19 23 -43z"/>
<path d="M3196 998 c-25 -14 -19 -34 17 -55 25 -15 36 -32 51 -78 10 -33 19
-64 20 -70 1 -5 4 -14 7 -20 3 -5 23 -68 44 -140 21 -71 43 -135 49 -142 6 -7
20 -10 32 -7 16 4 29 34 64 145 25 76 48 139 52 139 3 0 9 -15 13 -32 7 -31
29 -108 60 -203 16 -48 39 -66 59 -45 7 8 24 49 36 90 12 41 25 86 30 100 5
14 25 78 45 143 29 94 39 117 54 117 25 0 44 25 37 47 -5 16 -18 18 -98 18
l-93 0 0 -30 c0 -25 4 -30 25 -30 33 0 32 -20 -11 -163 -38 -128 -32 -131 -84
45 -27 93 -30 113 -18 117 8 4 19 4 23 1 5 -3 14 4 20 16 19 35 -1 43 -101 44
-76 0 -92 -2 -100 -17 -11 -20 13 -48 41 -48 30 0 30 -36 -1 -128 -17 -48 -31
-91 -33 -97 -16 -62 -19 -62 -37 0 -9 33 -28 97 -42 143 -14 45 -22 84 -18 86
3 2 14 2 24 1 22 -4 44 32 28 48 -13 13 -173 17 -195 5z"/>
<path d="M3988 999 c-19 -12 -3 -44 27 -54 17 -5 32 -13 35 -16 7 -9 4 -358
-2 -365 -3 -2 -15 -6 -27 -9 -39 -7 -47 -22 -28 -51 7 -12 201 -14 213 -2 10
11 -4 56 -18 55 -49 -2 -49 -1 -46 80 2 47 7 78 15 80 6 2 38 -29 70 -69 32
-40 62 -76 68 -80 5 -4 -3 -11 -18 -17 -29 -11 -35 -32 -14 -48 14 -12 192
-12 203 0 20 20 10 39 -29 57 -30 13 -64 45 -122 114 -44 53 -82 101 -83 106
-3 9 21 34 116 122 19 16 49 34 68 40 26 7 34 14 34 32 0 30 -8 33 -110 32
-84 -1 -85 -2 -88 -28 -2 -20 2 -28 18 -33 20 -6 15 -13 -51 -76 l-74 -69 -3
66 c-2 37 -1 68 1 71 3 2 18 5 33 7 23 2 30 9 32 30 2 14 0 27 -5 27 -30 5
-206 3 -215 -2z"/>
<path d="M4788 912 c-21 -4 -20 1 -22 -87 l-1 -70 -75 -1 c-96 -2 -90 0 -90
-29 0 -32 23 -42 93 -40 33 1 61 -3 65 -9 4 -6 7 -41 7 -78 1 -76 10 -92 47
-83 24 6 25 10 26 82 0 41 4 78 7 82 4 3 32 6 63 7 97 2 94 0 90 36 l-3 33
-70 0 c-39 1 -75 4 -81 7 -6 4 -9 28 -7 55 6 80 -7 105 -49 95z"/>
</g>
</svg>
